<svg xmlns="http://www.w3.org/2000/svg" width="1400" height="720" viewBox="0 0 1400 720">
  <rect width="1400" height="720" fill="#171a1f"/>
  <rect x="30" y="30" width="1340" height="660" rx="18" fill="#20242a" stroke="#3b414a"/>
  <text x="70" y="76" fill="#929aa6" font-family="Inter,Arial" font-size="18">PRODUCTION</text>
  <text x="70" y="120" fill="#f4f5f7" font-family="Inter,Arial" font-size="28" font-weight="700">Episode 1  ›  Shot 03  ›  Screen: Conversation</text>
  <rect x="70" y="150" width="1260" height="58" rx="10" fill="#292e35"/>
  <text x="96" y="186" fill="#c8cdd4" font-family="Inter,Arial" font-size="17">Inherited context</text>
  <text x="270" y="186" fill="#f4f5f7" font-family="Inter,Arial" font-size="17">Galaxy S21</text>
  <text x="445" y="186" fill="#f4f5f7" font-family="Inter,Arial" font-size="17">Android Theme Test</text>
  <text x="700" y="186" fill="#f4f5f7" font-family="Inter,Arial" font-size="17">Light</text>
  <text x="1210" y="186" fill="#9da5b0" font-family="Inter,Arial" font-size="17">View only</text>
  <rect x="70" y="235" width="1260" height="100" rx="12" fill="#252a31" stroke="#4b525d"/>
  <text x="96" y="273" fill="#f4f5f7" font-family="Inter,Arial" font-size="19" font-weight="600">Shot timeline</text>
  <text x="96" y="307" fill="#b7bec8" font-family="Inter,Arial" font-size="17">‹ Shot</text>
  <text x="210" y="307" fill="#b7bec8" font-family="Inter,Arial" font-size="17">‹ Screen</text>
  <rect x="340" y="282" width="48" height="38" rx="8" fill="#705407"/>
  <text x="356" y="308" fill="#fff6d1" font-family="Inter,Arial" font-size="21">▶</text>
  <text x="420" y="307" fill="#f4f5f7" font-family="Inter,Arial" font-size="17">00:04:12 / 00:09:18</text>
  <rect x="630" y="296" width="560" height="6" rx="3" fill="#4c535e"/>
  <circle cx="855" cy="299" r="11" fill="#f0b90b"/>
  <text x="1212" y="307" fill="#b7bec8" font-family="Inter,Arial" font-size="17">Screen ›</text>
  <text x="1290" y="307" fill="#b7bec8" font-family="Inter,Arial" font-size="17">Shot ›</text>
  <rect x="70" y="365" width="600" height="250" rx="12" fill="#292e35"/>
  <text x="96" y="407" fill="#f4f5f7" font-family="Inter,Arial" font-size="21" font-weight="600">Screen runtime values</text>
  <text x="96" y="443" fill="#9da5b0" font-family="Inter,Arial" font-size="16">Saved to this Screen</text>
  <rect x="96" y="468" width="548" height="54" rx="9" fill="#1e2228" stroke="#505762"/>
  <text x="116" y="501" fill="#e7e9ec" font-family="Inter,Arial" font-size="17">Message 1 · Alex Q · image attachment</text>
  <rect x="96" y="538" width="548" height="54" rx="9" fill="#1e2228" stroke="#505762"/>
  <text x="116" y="571" fill="#e7e9ec" font-family="Inter,Arial" font-size="17">Message 2 · System · no attachment</text>
  <rect x="700" y="365" width="630" height="250" rx="12" fill="#17263a"/>
  <text x="725" y="405" fill="#f4f5f7" font-family="Inter,Arial" font-size="19">Preview · Screen: Conversation</text>
  <rect x="900" y="425" width="220" height="170" rx="24" fill="#f2f3f5" stroke="#69717c"/>
  <text x="70" y="666" fill="#8f98a4" font-family="Inter,Arial" font-size="16">Proposal: make scope, inherited context and transport boundaries readable without relying on icon recall.</text>
</svg>
