<svg xmlns="http://www.w3.org/2000/svg" width="1500" height="860" viewBox="0 0 1500 860"><rect width="1500" height="860" fill="#171a1f"/><style>text{font-family:Inter,Arial}.p{fill:#20242a;stroke:#3b414a}.r{fill:#2b3037}.t{fill:#f4f5f7}.m{fill:#aab2bd}.a{fill:#ffd45a}.b{fill:#4d3b12}</style>
  <text x="28" y="36" class="m" font-size="17">D03 · Franja compacta integrada con el breadcrumb existente</text><rect x="28" y="55" width="430" height="760" rx="16" class="p"/><rect x="475" y="55" width="515" height="760" rx="16" class="p"/><rect x="1007" y="55" width="465" height="760" rx="16" class="p"/>
  <text x="56" y="100" class="m" font-size="14">NAVEGACIÓN</text><rect x="56" y="132" width="374" height="76" rx="11" class="r"/><text x="78" y="164" class="t" font-size="18">Bubble</text><text x="78" y="188" class="m" font-size="14">Componente</text><rect x="56" y="222" width="374" height="72" rx="11" fill="#36577e"/><text x="78" y="255" class="t" font-size="18">Bubble</text><text x="78" y="278" class="m" font-size="14">Variante seleccionada</text>
  <text x="505" y="96" class="m" font-size="14">EDITOR</text><text x="505" y="130" class="m" font-size="15">Componentes › Bubble › Variante</text>
  <rect x="505" y="148" width="455" height="54" rx="9" fill="#252a31" stroke="#4b525d"/><text x="522" y="181" class="t" font-size="15" font-weight="600">Componente: Bubble · Variante: Bubble</text><rect x="760" y="159" width="110" height="32" rx="16" class="b"/><text x="775" y="181" class="a" font-size="13">3 overrides</text><text x="884" y="181" class="m" font-size="13">Guardado</text><text x="943" y="181" class="t" font-size="18">⌃</text>
  <text x="505" y="228" class="m" font-size="14">La franja no repite título ni breadcrumb: completa estado y alcance.</text>
  <rect x="505" y="260" width="455" height="80" rx="11" class="r"/><text x="528" y="307" class="t" font-size="18">General</text><text x="920" y="307" class="t" font-size="22">›</text><rect x="505" y="356" width="455" height="80" rx="11" class="r"/><text x="528" y="403" class="t" font-size="18">Text</text><text x="920" y="403" class="t" font-size="22">›</text>
  <rect x="505" y="476" width="455" height="115" rx="11" fill="#242930" stroke="#59616d"/><text x="528" y="512" class="t" font-size="17" font-weight="600">Estado dirty</text><text x="528" y="543" class="a" font-size="15">Cambios sin guardar</text><text x="528" y="570" class="m" font-size="14">Guardar variante · Revertir cambios…</text>
  <text x="1037" y="96" class="m" font-size="14">PREVIEW</text><rect x="1037" y="122" width="405" height="650" rx="13" fill="#17263a"/><rect x="1147" y="170" width="185" height="548" rx="22" fill="#f3f4f6"/>
  <rect x="505" y="635" width="455" height="135" rx="11" fill="#252a31"/><text x="528" y="670" class="t" font-size="17" font-weight="600">Ancho reducido</text><text x="528" y="701" class="m" font-size="14">Componente: Bubble · Variante: Bubble · 3 overrides · ●</text><text x="528" y="730" class="m" font-size="14">Primitiva compartida alimentada solo por metadatos.</text>
</svg>
