<svg xmlns="http://www.w3.org/2000/svg" width="1500" height="860" viewBox="0 0 1500 860"><rect width="1500" height="860" fill="#171a1f"/><style>text{font-family:Inter,Arial}.p{fill:#20242a;stroke:#3b414a}.r{fill:#2b3037}.t{fill:#f4f5f7}.m{fill:#aab2bd}.a{fill:#ffd45a}.x{fill:#183249;stroke:#3e719a}</style>
  <text x="28" y="36" class="m" font-size="17">D04 · Valores de prueba temporales y conversión explícita a predeterminados</text><rect x="28" y="55" width="430" height="760" rx="16" class="p"/><rect x="475" y="55" width="515" height="760" rx="16" class="p"/><rect x="1007" y="55" width="465" height="760" rx="16" class="p"/>
  <text x="56" y="100" class="m" font-size="14">NAVEGACIÓN</text><rect x="56" y="132" width="374" height="74" rx="11" fill="#36577e"/><text x="78" y="166" class="t" font-size="17">Componente: Bubble · Variante: Bubble</text><text x="78" y="190" class="m" font-size="14">Variante seleccionada</text>
  <text x="505" y="100" class="m" font-size="14">EDITOR</text><text x="505" y="133" class="t" font-size="22" font-weight="700">Runtime Inputs</text><rect x="505" y="154" width="455" height="70" rx="11" class="x"/><text x="528" y="184" class="t" font-size="18" font-weight="600">Valores de prueba · temporales</text><text x="528" y="208" class="m" font-size="14">Solo afectan a esta previsualización</text>
  <rect x="505" y="242" width="455" height="92" rx="11" class="r"/><text x="528" y="276" class="m" font-size="14">Mensaje</text><text x="528" y="307" class="t" font-size="17">Mensaje de prueba 😎</text><rect x="505" y="350" width="455" height="92" rx="11" class="r"/><text x="528" y="384" class="m" font-size="14">Actor</text><text x="528" y="415" class="t" font-size="17">Alex Q</text>
  <rect x="505" y="463" width="212" height="50" rx="10" fill="#2d323a" stroke="#626a76"/><text x="521" y="494" class="t" font-size="15">Restablecer valores de prueba</text><rect x="730" y="463" width="230" height="50" rx="10" fill="#705407" stroke="#f0b90b"/><text x="746" y="494" class="t" font-size="15">Guardar como valores predeterminados…</text>
  <rect x="505" y="540" width="455" height="155" rx="11" fill="#242930" stroke="#59616d"/><text x="528" y="576" class="t" font-size="17" font-weight="600">Confirmación</text><text x="528" y="607" class="m" font-size="14">Guardar 2 valores · Componente: Bubble · Variante: Bubble</text><text x="528" y="635" class="m" font-size="14">Mensaje · Actor</text><text x="528" y="667" class="a" font-size="14">Esta acción modifica los predeterminados de la variante.</text>
  <text x="1037" y="100" class="m" font-size="14">PREVIEW</text><rect x="1037" y="122" width="405" height="650" rx="13" fill="#17263a"/><rect x="1148" y="170" width="184" height="548" rx="22" fill="#f3f4f6"/><rect x="1168" y="438" width="144" height="85" rx="14" fill="#d8d4cd"/><text x="1179" y="470" fill="#23262b" font-size="13">Mensaje de prueba 😎</text><rect x="1060" y="735" width="360" height="34" rx="8" fill="#183249"/><text x="1080" y="757" class="m" font-size="13">Vista previa con valores temporales</text>
  <text x="56" y="760" class="m" font-size="14">“Recargar predeterminados” se usa solo si esa es la acción real. Guardar se desactiva sin diferencias.</text>
</svg>
