<svg
  class="lucide lucide-send"
  xmlns="http://www.w3.org/2000/svg"
  width="24"
  height="24"
  viewBox="0 0 24 24"
  fill="none"
  stroke="currentColor"
  stroke-width="2"
  stroke-linecap="round"
  stroke-linejoin="round"
>
  <g data-mockups-transform="fit-center-scale-rotate" data-mockups-fit-scale="0.9167" data-mockups-padding="1" transform="translate(9.0824 12) rotate(45.8599) scale(1) scale(0.9167) translate(-12 -12)">
    <svg xmlns="http://www.w3.org/2000/svg" x="0" y="0" width="24" height="24" viewBox="0 0 24 24" overflow="visible" color="#000" fill="none" stroke="currentColor" stroke-width="2" stroke-linecap="round" stroke-linejoin="round">
<g data-mockups-transform="fit-center-scale-rotate" data-mockups-fit-scale="0.8542" data-mockups-padding="1.75" transform="translate(12 12) rotate(0) scale(1) scale(0.8542) translate(-12 -12)">
    <svg xmlns="http://www.w3.org/2000/svg" x="0" y="0" width="24" height="24" viewBox="0 0 24 24" overflow="visible" color="#000" fill="none" stroke="currentColor" stroke-width="2" stroke-linecap="round" stroke-linejoin="round">
<path d="M14.536 21.686a.5.5 0 0 0 .937-.024l6.5-19a.496.496 0 0 0-.635-.635l-19 6.5a.5.5 0 0 0-.024.937l7.93 3.18a2 2 0 0 1 1.112 1.11z" />
  <path d="m21.854 2.147-10.94 10.939" />
    </svg>
  </g>
    </svg>
  </g>
</svg>