<svg
  class="lucide lucide-volume-2"
  xmlns="http://www.w3.org/2000/svg"
  width="24"
  height="24"
  viewBox="0 0 24 24"
  fill="none"
  stroke="currentColor"
  stroke-width="2"
  stroke-linecap="round"
  stroke-linejoin="round"
>
  <g data-mockups-transform="fit-center-scale-rotate" data-mockups-fit-scale="0.9167" data-mockups-padding="1" transform="translate(12 12) rotate(0) scale(1) scale(0.9167) translate(-12 -12)">
    <svg xmlns="http://www.w3.org/2000/svg" x="0" y="0" width="24" height="24" viewBox="0 0 24 24" overflow="visible" color="#000" fill="none" stroke="currentColor" stroke-width="2" stroke-linecap="round" stroke-linejoin="round">
<g data-mockups-transform="fit-center-scale-rotate" data-mockups-fit-scale="0.7237" data-mockups-padding="1" transform="translate(12 12) rotate(0) scale(1) scale(0.7237) translate(-15.2 -11.9955)">
    <svg xmlns="http://www.w3.org/2000/svg" x="0" y="0" width="30.4" height="23.991" viewBox="0 0 30.4 23.991" overflow="visible" fill="#000" stroke="none">
<g id="Grupo_136" data-name="Grupo 136" transform="translate(0 0)">
    <path id="Trazado_77" data-name="Trazado 77" d="M1678.927,2270.8a2.389,2.389,0,0,1,2.613-1.521,8.362,8.362,0,0,0,3.394-.123c.96-.392,1.638-1.481,2.432-2.272q2.435-2.426,4.861-4.862a1.6,1.6,0,0,1,1.841-.577,1.58,1.58,0,0,1,.963,1.729q-.017,10.134,0,20.268a1.548,1.548,0,0,1-2.8,1.152c-2.258-2.266-4.529-4.518-6.776-6.795a1.457,1.457,0,0,0-1.191-.486c-.906.034-1.817-.039-2.72.022a2.363,2.363,0,0,1-2.614-1.517Z" transform="translate(-1678.927 -2261.29)" fill="#000"/>
    <path id="Trazado_78" data-name="Trazado 78" d="M1868.919,2273.984c-.043.268-.081.538-.131.8a12.875,12.875,0,0,1-6.873,9.383.653.653,0,0,1-.878-.153.627.627,0,0,1,.064-.828,1.108,1.108,0,0,1,.263-.178,11.577,11.577,0,0,0,5.584-6.3,11.192,11.192,0,0,0,.495-6.423,11.521,11.521,0,0,0-6.048-8.023,1.284,1.284,0,0,1-.306-.209.624.624,0,0,1-.062-.8.606.606,0,0,1,.789-.208,14.306,14.306,0,0,1,1.34.771,12.864,12.864,0,0,1,4.6,5.333,12.722,12.722,0,0,1,1.123,3.952,1.534,1.534,0,0,0,.039.17Z" transform="translate(-1838.519 -2260.98)" fill="#000"/>
    <path id="Trazado_79" data-name="Trazado 79" d="M1848.08,2296.637a9.448,9.448,0,0,1-2.878,6.977,8.669,8.669,0,0,1-1.961,1.435.632.632,0,0,1-.832-.155.623.623,0,0,1,.031-.815,1.32,1.32,0,0,1,.3-.219,7.919,7.919,0,0,0,3.074-3.135,7.976,7.976,0,0,0-1.452-9.527,8.253,8.253,0,0,0-1.674-1.257,1.086,1.086,0,0,1-.365-.347.626.626,0,0,1,.847-.837,13.874,13.874,0,0,1,1.519,1.018,9.013,9.013,0,0,1,3.174,5.235C1847.993,2295.633,1848.033,2296.275,1848.08,2296.637Z" transform="translate(-1822.152 -2285.268)" fill="#000"/>
    <path id="Trazado_80" data-name="Trazado 80" d="M1824.265,2325.419a4.42,4.42,0,0,1-3.181,4.406.649.649,0,0,1-.832-.41.636.636,0,0,1,.46-.817,3.138,3.138,0,0,0,1.584-1.03,3.059,3.059,0,0,0-1.459-4.841,1.245,1.245,0,0,1-.369-.165.617.617,0,0,1-.177-.781.643.643,0,0,1,.785-.319,4.141,4.141,0,0,1,1.255.576A4.224,4.224,0,0,1,1824.265,2325.419Z" transform="translate(-1802.836 -2313.993)" fill="#000"/>
  </g>
    </svg>
  </g>
    </svg>
  </g>
</svg>