<svg
  class="lucide lucide-wifi"
  xmlns="http://www.w3.org/2000/svg"
  width="24"
  height="24"
  viewBox="0 0 24 24"
  fill="none"
  stroke="currentColor"
  stroke-width="2"
  stroke-linecap="round"
  stroke-linejoin="round"
>
  <g data-mockups-transform="fit-center-scale-rotate" data-mockups-fit-scale="0.9348" data-mockups-padding="1.25" transform="translate(12 12.5) rotate(0) scale(1) scale(0.9348) translate(-11 -11.5)">
    <svg xmlns="http://www.w3.org/2000/svg" xmlns:xlink="http://www.w3.org/1999/xlink" xmlns:serif="http://www.serif.com/" x="0" y="0" width="22" height="23" viewBox="0 0 22 23" overflow="visible" color="#000" style="fill-rule:evenodd;clip-rule:evenodd;stroke-linejoin:round;stroke-miterlimit:2;" fill="#000" stroke="none">
<g transform="matrix(1,0,0,1,-1.029976,-0.991536)">
        <g id="Trazado_51" transform="matrix(0.8866,0,0,0.8866,359.958139,-32.191247)">
            <path d="M-391.541,62.252L-393.241,62.252C-393.303,62.237 -393.364,62.217 -393.427,62.207C-393.992,62.123 -394.567,62.078 -395.127,61.951C-398.071,61.32 -400.675,59.612 -402.427,57.163C-404.456,54.46 -405.255,51.024 -404.627,47.703C-404.116,44.548 -402.367,41.723 -399.77,39.859C-397.371,38.054 -394.385,37.204 -391.395,37.477C-389.865,37.589 -388.37,37.997 -386.995,38.677C-382.226,41.043 -379.485,46.225 -380.215,51.499C-380.509,53.893 -381.513,56.146 -383.095,57.967C-384.984,60.203 -387.625,61.675 -390.521,62.104C-390.857,62.163 -391.2,62.2 -391.541,62.252ZM-382.564,51.144C-382.581,51.055 -382.605,50.968 -382.635,50.883C-383.259,49.299 -384.262,47.891 -385.555,46.783C-387.829,44.789 -390.869,43.894 -393.861,44.339C-396.444,44.667 -398.811,45.96 -400.483,47.956C-401.259,48.856 -401.875,49.882 -402.303,50.991C-402.464,51.353 -402.308,51.784 -401.952,51.958C-401.854,52.004 -401.747,52.028 -401.639,52.028C-401.352,52.028 -401.091,51.86 -400.972,51.599C-400.92,51.499 -400.879,51.394 -400.835,51.29C-400.246,49.864 -399.294,48.617 -398.074,47.673C-396.015,46.007 -393.316,45.347 -390.72,45.873C-388.309,46.294 -386.184,47.713 -384.87,49.778C-384.536,50.338 -384.233,50.916 -383.963,51.51C-383.815,51.839 -383.448,52.015 -383.099,51.924C-382.759,51.824 -382.535,51.497 -382.564,51.144ZM-387.595,52.778C-387.343,52.772 -387.114,52.631 -386.995,52.409C-386.852,52.158 -386.868,51.844 -387.036,51.609C-388.335,49.409 -390.863,48.223 -393.385,48.631C-395.322,48.905 -397.01,50.102 -397.909,51.839C-397.993,52.001 -398.028,52.185 -398.009,52.367C-397.983,52.66 -397.76,52.899 -397.47,52.947C-397.173,53.03 -396.854,52.908 -396.689,52.647C-396.535,52.42 -396.407,52.175 -396.241,51.959C-395.388,50.784 -394.034,50.073 -392.583,50.037C-391.401,49.966 -390.239,50.369 -389.354,51.155C-388.962,51.536 -388.605,51.951 -388.287,52.395C-388.134,52.629 -387.874,52.772 -387.595,52.777L-387.595,52.778ZM-392.458,52.651C-392.461,52.651 -392.463,52.651 -392.466,52.651C-393.316,52.651 -394.015,53.35 -394.016,54.2C-394.017,55.053 -393.318,55.756 -392.465,55.759C-391.612,55.76 -390.909,55.06 -390.906,54.207C-390.906,54.205 -390.906,54.202 -390.906,54.2C-390.906,53.35 -391.606,52.65 -392.456,52.65C-392.457,52.65 -392.457,52.65 -392.458,52.65L-392.458,52.651Z" fill-rule="evenodd" clip-rule="evenodd"/>
        </g>
    </g>
    </svg>
  </g>
</svg>